<mxfile host="65bd71144e">
    <diagram id="TWX_PVk8kYSDejaoBUOy" name="Page-1">
        <mxGraphModel dx="1064" dy="915" grid="1" gridSize="10" guides="1" tooltips="1" connect="1" arrows="1" fold="1" page="1" pageScale="1" pageWidth="850" pageHeight="1100" math="0" shadow="0">
            <root>
                <mxCell id="0"/>
                <mxCell id="1" parent="0"/>
                <mxCell id="5" value="" style="edgeStyle=none;html=1;endArrow=none;endFill=0;entryX=0.1;entryY=0.5;entryDx=0;entryDy=0;entryPerimeter=0;fontSize=14;" edge="1" parent="1" target="20">
                    <mxGeometry relative="1" as="geometry">
                        <mxPoint x="405" y="390" as="sourcePoint"/>
                        <mxPoint x="420" y="450" as="targetPoint"/>
                    </mxGeometry>
                </mxCell>
                <mxCell id="3" value="&lt;b&gt;Michel Morvant&lt;/b&gt;&lt;div&gt;Directeur de l’agence&lt;/div&gt;" style="verticalAlign=top;verticalLabelPosition=bottom;labelPosition=center;align=center;html=1;outlineConnect=0;gradientDirection=north;strokeWidth=2;shape=mxgraph.networks.user_male;fillColor=#bac8d3;strokeColor=#23445d;fontSize=14;" vertex="1" parent="1">
                    <mxGeometry x="385" y="250" width="40" height="100" as="geometry"/>
                </mxCell>
                <mxCell id="4" value="&lt;div&gt;&lt;b&gt;Céline Hamonou&lt;/b&gt;&lt;/div&gt;&lt;div&gt;Assistante de direction&lt;/div&gt;" style="verticalAlign=top;verticalLabelPosition=bottom;labelPosition=center;align=center;html=1;outlineConnect=0;gradientDirection=north;strokeWidth=2;shape=mxgraph.networks.user_male;fillColor=#bac8d3;strokeColor=#23445d;fontSize=14;" vertex="1" parent="1">
                    <mxGeometry x="140" y="490" width="40" height="100" as="geometry"/>
                </mxCell>
                <mxCell id="6" value="&lt;span&gt;&lt;font&gt;Équipe de développement&lt;/font&gt;&lt;/span&gt;" style="rounded=1;whiteSpace=wrap;html=1;fillColor=none;verticalAlign=top;fontSize=14;" vertex="1" parent="1">
                    <mxGeometry x="480" y="470" width="350" height="340" as="geometry"/>
                </mxCell>
                <mxCell id="9" value="&lt;div&gt;&lt;b&gt;Arthur Caplet&lt;/b&gt;&lt;/div&gt;&lt;div&gt;&lt;span style=&quot;background-color: transparent;&quot;&gt;Chargé de webmarketing&lt;/span&gt;&lt;/div&gt;" style="verticalAlign=top;verticalLabelPosition=bottom;labelPosition=center;align=center;html=1;outlineConnect=0;gradientDirection=north;strokeWidth=2;shape=mxgraph.networks.user_male;fillColor=#bac8d3;strokeColor=#23445d;fontSize=14;" vertex="1" parent="1">
                    <mxGeometry x="330" y="490" width="40" height="100" as="geometry"/>
                </mxCell>
                <mxCell id="10" value="&lt;div&gt;&lt;b&gt;Théo Le Gourrierec&lt;/b&gt;&lt;/div&gt;&lt;div&gt;&lt;span style=&quot;background-color: transparent;&quot;&gt;Développeur Front-end&lt;/span&gt;&lt;/div&gt;" style="verticalAlign=top;verticalLabelPosition=bottom;labelPosition=center;align=center;html=1;outlineConnect=0;gradientDirection=north;strokeWidth=2;shape=mxgraph.networks.user_male;fillColor=#bac8d3;strokeColor=#23445d;fontSize=14;" vertex="1" parent="1">
                    <mxGeometry x="550" y="500" width="40" height="100" as="geometry"/>
                </mxCell>
                <mxCell id="11" value="&lt;div&gt;&lt;b&gt;&lt;font&gt;Gabroel Haodi&lt;/font&gt;&lt;/b&gt;&lt;/div&gt;&lt;div&gt;&lt;span style=&quot;background-color: transparent;&quot;&gt;&lt;font&gt;Développeur Front-end&lt;/font&gt;&lt;/span&gt;&lt;/div&gt;" style="verticalAlign=top;verticalLabelPosition=bottom;labelPosition=center;align=center;html=1;outlineConnect=0;gradientDirection=north;strokeWidth=2;shape=mxgraph.networks.user_male;fillColor=#bac8d3;strokeColor=#23445d;fontSize=14;" vertex="1" parent="1">
                    <mxGeometry x="720" y="500" width="40" height="100" as="geometry"/>
                </mxCell>
                <mxCell id="12" value="&lt;div&gt;&lt;span style=&quot;background-color: transparent;&quot;&gt;&lt;b&gt;Lindsay Chognon&lt;/b&gt;&lt;/span&gt;&lt;/div&gt;&lt;div&gt;&lt;span style=&quot;background-color: transparent;&quot;&gt;Développeuse Back-end&lt;/span&gt;&lt;/div&gt;" style="verticalAlign=top;verticalLabelPosition=bottom;labelPosition=center;align=center;html=1;outlineConnect=0;gradientDirection=north;strokeWidth=2;shape=mxgraph.networks.user_male;fillColor=#bac8d3;strokeColor=#23445d;fontSize=14;" vertex="1" parent="1">
                    <mxGeometry x="550" y="650" width="40" height="100" as="geometry"/>
                </mxCell>
                <mxCell id="13" value="&lt;div&gt;&lt;b&gt;Moi&lt;/b&gt;&lt;/div&gt;" style="verticalAlign=top;verticalLabelPosition=bottom;labelPosition=center;align=center;html=1;outlineConnect=0;gradientDirection=north;strokeWidth=2;shape=mxgraph.networks.user_male;fillColor=#bac8d3;strokeColor=#23445d;fontSize=14;" vertex="1" parent="1">
                    <mxGeometry x="720" y="650" width="40" height="100" as="geometry"/>
                </mxCell>
                <mxCell id="20" value="" style="shape=curlyBracket;whiteSpace=wrap;html=1;rounded=1;labelPosition=left;verticalLabelPosition=middle;align=right;verticalAlign=middle;rotation=90;fontSize=14;" vertex="1" parent="1">
                    <mxGeometry x="395" y="175" width="20" height="490" as="geometry"/>
                </mxCell>
                <mxCell id="22" value="" style="endArrow=none;html=1;entryX=1;entryY=0;entryDx=0;entryDy=0;entryPerimeter=0;exitX=0.482;exitY=0.001;exitDx=0;exitDy=0;exitPerimeter=0;fontSize=14;" edge="1" parent="1" source="6" target="20">
                    <mxGeometry width="50" height="50" relative="1" as="geometry">
                        <mxPoint x="680" y="470" as="sourcePoint"/>
                        <mxPoint x="600" y="440" as="targetPoint"/>
                    </mxGeometry>
                </mxCell>
                <mxCell id="23" value="" style="endArrow=none;html=1;entryX=1;entryY=1;entryDx=0;entryDy=0;entryPerimeter=0;endFill=0;startArrow=block;startFill=1;fontSize=14;" edge="1" parent="1" target="20">
                    <mxGeometry width="50" height="50" relative="1" as="geometry">
                        <mxPoint x="160" y="480" as="sourcePoint"/>
                        <mxPoint x="210" y="480" as="targetPoint"/>
                    </mxGeometry>
                </mxCell>
                <mxCell id="24" value="" style="endArrow=none;html=1;startArrow=block;startFill=1;fontSize=14;" edge="1" parent="1">
                    <mxGeometry width="50" height="50" relative="1" as="geometry">
                        <mxPoint x="350" y="480" as="sourcePoint"/>
                        <mxPoint x="349.71" y="420" as="targetPoint"/>
                    </mxGeometry>
                </mxCell>
            </root>
        </mxGraphModel>
    </diagram>
</mxfile>